<svg width="32" height="32" viewBox="0 0 32 32" fill="none" xmlns="http://www.w3.org/2000/svg">
<path d="M8.66602 10.667C9.77059 10.667 10.666 9.77157 10.666 8.66699C10.666 7.56242 9.77059 6.66699 8.66602 6.66699C7.56144 6.66699 6.66602 7.56242 6.66602 8.66699C6.66602 9.77157 7.56144 10.667 8.66602 10.667Z" fill="#0F0F0F"/>
<path d="M6.66602 13.3333C6.66602 12.597 7.26298 12 7.99935 12H9.33268C10.0691 12 10.666 12.5969 10.666 13.3333V24C10.666 24.7364 10.0691 25.3333 9.33268 25.3333H7.99935C7.26298 25.3333 6.66602 24.7364 6.66602 24V13.3333Z" fill="#0F0F0F"/>
<path d="M14.6663 25.3333H15.9997C16.7361 25.3333 17.333 24.7364 17.333 24V18C17.333 16 21.333 14.6667 21.333 17.3333V24.0005C21.333 24.7369 21.9299 25.3333 22.6663 25.3333H23.9997C24.7361 25.3333 25.333 24.7364 25.333 24V16C25.333 13.3333 23.333 12 20.6663 12C17.9997 12 17.333 14 17.333 14V13.3333C17.333 12.5969 16.7361 12 15.9997 12H14.6663C13.9299 12 13.333 12.597 13.333 13.3333V24C13.333 24.7364 13.9299 25.3333 14.6663 25.3333Z" fill="#0F0F0F"/>
<path fill-rule="evenodd" clip-rule="evenodd" d="M26.6663 1.3335C28.8755 1.3335 30.6663 3.12436 30.6663 5.3335V26.6668C30.6663 28.876 28.8755 30.6668 26.6663 30.6668H5.33301C3.12387 30.6668 1.33301 28.876 1.33301 26.6668V5.3335C1.33301 3.12436 3.12387 1.3335 5.33301 1.3335H26.6663ZM26.6663 4.00016C27.4027 4.00016 27.9997 4.59712 27.9997 5.3335V26.6668C27.9997 27.4032 27.4027 28.0002 26.6663 28.0002H5.33301C4.59663 28.0002 3.99967 27.4032 3.99967 26.6668V5.3335C3.99967 4.59712 4.59663 4.00016 5.33301 4.00016H26.6663Z" fill="#0F0F0F"/>
</svg>
