<svg width="39" height="39" viewBox="0 0 39 39" fill="none" xmlns="http://www.w3.org/2000/svg">
<path d="M9.07139 12.101C4.76639 13.0758 2.61389 13.5623 2.10114 15.209C1.59014 16.854 3.05664 18.5708 5.99139 22.0025L6.75089 22.8898C7.58389 23.8645 8.00214 24.3528 8.18939 24.9548C8.37664 25.5585 8.31364 26.2095 8.18764 27.5098L8.07214 28.6945C7.62939 33.2743 7.40714 35.5633 8.74764 36.58C10.0881 37.5968 12.1041 36.6693 16.1326 34.8143L17.1774 34.3348C18.3219 33.8063 18.8941 33.5438 19.5014 33.5438C20.1086 33.5438 20.6809 33.8063 21.8271 34.3348L22.8684 34.8143C26.8986 36.6693 28.9146 37.5968 30.2534 36.5818C31.5956 35.5633 31.3734 33.2743 30.9306 28.6945M33.0114 22.0025C35.9461 18.5725 37.4126 16.8558 36.9016 15.209C36.3906 13.5623 34.2364 13.074 29.9314 12.101L28.8184 11.849C27.5951 11.5725 26.9844 11.4343 26.4926 11.0615C26.0009 10.6888 25.6876 10.1235 25.0576 8.993L24.4836 7.964C22.2664 3.988 21.1586 2 19.5014 2C17.8441 2 16.7364 3.988 14.5191 7.964" stroke="#377ABB" stroke-width="4" stroke-linecap="round"/>
</svg>
