<svg width="122" height="120" viewBox="0 0 122 120" fill="none" xmlns="http://www.w3.org/2000/svg">
<path d="M18.0844 84.3938C22.0695 91.1867 27.6648 96.9315 34.3937 101.139C41.1225 105.347 48.7856 107.892 56.7302 108.559L79.1659 70.3362L61.0002 60.0218L42.8469 70.3313L36.7946 60.0188L32.3626 52.4697L20.4172 32.1184C15.0123 39.7107 11.9218 48.6622 11.5086 57.9218C11.0954 67.1815 13.3766 76.3649 18.0844 84.3938Z" fill="#00AC47"/>
<path d="M60.9999 11.2771C53.0263 11.2751 45.1703 13.1687 38.1011 16.7967C31.0319 20.4246 24.9589 25.6795 20.3994 32.1136L42.8352 70.3362L60.9999 60.0215V39.4021H105.858C101.875 31.0023 95.5395 23.8944 87.5939 18.9126C79.6482 13.9308 70.4225 11.282 60.9999 11.2771Z" fill="#EA4435"/>
<path d="M103.913 84.3938C107.901 77.6029 110.161 69.9647 110.501 62.1295C110.841 54.2943 109.251 46.4943 105.866 39.3938H60.9951V60.0229L79.1498 70.3324L73.0975 80.6449L68.6654 88.1955L56.7197 108.546C66.1071 109.354 75.5339 107.51 83.8933 103.232C92.2526 98.9539 99.1976 92.4187 103.913 84.3938Z" fill="#FFBA00"/>
<path d="M60.9961 80.6514C72.5768 80.6514 81.9648 71.4172 81.9648 60.0264C81.9648 48.6355 72.5768 39.4014 60.9961 39.4014C49.4154 39.4014 40.0273 48.6355 40.0273 60.0264C40.0273 71.4172 49.4154 80.6514 60.9961 80.6514Z" fill="white"/>
<path d="M60.9961 75.9639C69.9448 75.9639 77.1992 68.8284 77.1992 60.0264C77.1992 51.2243 69.9448 44.0889 60.9961 44.0889C52.0474 44.0889 44.793 51.2243 44.793 60.0264C44.793 68.8284 52.0474 75.9639 60.9961 75.9639Z" fill="#4285F4"/>
</svg>
