<svg width="39" height="39" viewBox="0 0 39 39" fill="none" xmlns="http://www.w3.org/2000/svg">
<path d="M9.07236 12.101C4.76736 13.0758 2.61486 13.5623 2.10211 15.209C1.59111 16.854 3.05761 18.5708 5.99236 22.0025L6.75186 22.8898C7.58486 23.8645 8.00311 24.3528 8.19036 24.9548C8.37761 25.5585 8.31461 26.2095 8.18861 27.5098L8.07311 28.6945C7.63036 33.2743 7.40811 35.5633 8.74861 36.58C10.0891 37.5968 12.1051 36.6693 16.1336 34.8143L17.1784 34.3348C18.3229 33.8063 18.8951 33.5438 19.5024 33.5438C20.1096 33.5438 20.6819 33.8063 21.8281 34.3348L22.8694 34.8143C26.8996 36.6693 28.9156 37.5968 30.2544 36.5818C31.5966 35.5633 31.3744 33.2743 30.9316 28.6945M33.0124 22.0025C35.9471 18.5725 37.4136 16.8558 36.9026 15.209C36.3916 13.5623 34.2374 13.074 29.9324 12.101L28.8194 11.849C27.5961 11.5725 26.9854 11.4343 26.4936 11.0615C26.0019 10.6888 25.6886 10.1235 25.0586 8.993L24.4846 7.964C22.2674 3.988 21.1596 2 19.5024 2C17.8451 2 16.7374 3.988 14.5201 7.964" stroke="#34A853" stroke-width="4" stroke-linecap="round"/>
</svg>
