<svg width="34" height="22" viewBox="0 0 34 22" fill="none" xmlns="http://www.w3.org/2000/svg">
<path d="M15.0739 0.586239C14.6184 0.21087 14.0008 0 13.3568 0C12.7128 0 12.0952 0.21087 11.6398 0.586239L0.711063 9.59648C0.255772 9.97196 0 10.4812 0 11.0121C0 11.543 0.255772 12.0522 0.711063 12.4277L11.6398 21.4379C12.0978 21.8027 12.7113 22.0045 13.3481 21.9999C13.9849 21.9954 14.594 21.7848 15.0443 21.4135C15.4946 21.0423 15.75 20.5401 15.7555 20.0151C15.761 19.4901 15.5162 18.9844 15.0739 18.6067L8.49961 13.0144H31.5714C32.2155 13.0144 32.8332 12.8034 33.2887 12.4279C33.7441 12.0524 34 11.5431 34 11.0121C34 10.4811 33.7441 9.97177 33.2887 9.59627C32.8332 9.22077 32.2155 9.00981 31.5714 9.00981H8.49961L15.0739 3.41746C15.5291 3.04197 15.7849 2.53278 15.7849 2.00185C15.7849 1.47092 15.5291 0.961721 15.0739 0.586239Z" fill="white"/>
</svg>
