<svg width="34" height="22" viewBox="0 0 34 22" fill="none" xmlns="http://www.w3.org/2000/svg">
<path d="M18.9261 0.586239C19.3816 0.21087 19.9992 0 20.6432 0C21.2872 0 21.9048 0.21087 22.3602 0.586239L33.2889 9.59648C33.7442 9.97196 34 10.4812 34 11.0121C34 11.543 33.7442 12.0522 33.2889 12.4277L22.3602 21.4379C21.9022 21.8027 21.2887 22.0045 20.6519 21.9999C20.0151 21.9954 19.406 21.7848 18.9557 21.4135C18.5054 21.0423 18.25 20.5401 18.2445 20.0151C18.239 19.4901 18.4838 18.9844 18.9261 18.6067L25.5004 13.0144H2.42861C1.7845 13.0144 1.16678 12.8034 0.711323 12.4279C0.255871 12.0524 0 11.5431 0 11.0121C0 10.4811 0.255871 9.97177 0.711323 9.59627C1.16678 9.22077 1.7845 9.00981 2.42861 9.00981H25.5004L18.9261 3.41746C18.4709 3.04197 18.2151 2.53278 18.2151 2.00185C18.2151 1.47092 18.4709 0.961721 18.9261 0.586239Z" fill="white"/>
</svg>
