<svg width="31" height="30" viewBox="0 0 31 30" fill="none" xmlns="http://www.w3.org/2000/svg">
<path d="M14.8206 21.6325C18.7124 17.6025 22.4698 14.8687 27.1896 10.9975C28.6026 9.83871 28.8209 7.80746 27.7127 6.36871C26.5347 4.83871 24.2962 4.53246 22.7824 5.74871C18.4592 9.21871 15.0957 12.5612 11.9053 16.1312C11.7374 16.3187 11.6534 16.4125 11.5669 16.465C11.4599 16.531 11.3358 16.5665 11.209 16.5671C11.0821 16.5678 10.9576 16.5337 10.85 16.4687C10.7621 16.4175 10.6782 16.325 10.5103 16.1412L8.81044 14.2787C8.44977 13.8821 7.99943 13.5713 7.49443 13.3706C6.98943 13.1698 6.44339 13.0845 5.89877 13.1213C5.35415 13.1581 4.82563 13.3159 4.35433 13.5825C3.88302 13.8492 3.48162 14.2175 3.18135 14.6587C2.74074 15.3031 2.53376 16.0709 2.59291 16.8415C2.65206 17.6121 2.97399 18.3419 3.50814 18.9162L6.17414 21.7787C8.16719 23.9187 9.16435 24.99 10.3617 25C11.5578 25.01 12.6454 23.885 14.8206 21.6325Z" stroke="black" stroke-width="1.5"/>
</svg>
